# xmcd
#
# Track frame offsets: 
#        150
#        11696
#        29019
#        45455
#        64630
#        85614
#        103450
#        121942
#        139670
#        181438
#        199112
#        218384
#
# Disc length: 3209 seconds
#
# Revision: 1
# Processed by: cddbd v1.5.2PL0 Copyright (c) Steve Scherf et al.
# Submitted via: ExactAudioCopyFreeDBPlugin 1.0
#
DISCID=a10c870c
DTITLE=Selwyn Birchwood - Don't Call No Ambulance
DYEAR=2014
DGENRE=Blues
TTITLE0=Addicted
TTITLE1=Don't Call No Ambulance
TTITLE2=Walking In The Lion's Den
TTITLE3=The River Turned Red
TTITLE4=Love Me Again
TTITLE5=Tell Me Why
TTITLE6=Overworked And Underpaid
TTITLE7=She Loves Me Not
TTITLE8=Brown Paper Bag
TTITLE9=Queen Of Hearts
TTITLE10=Falling From The Sky
TTITLE11=Hoodoo Stew
EXTD=
EXTT0=
EXTT1=
EXTT2=
EXTT3=
EXTT4=
EXTT5=
EXTT6=
EXTT7=
EXTT8=
EXTT9=
EXTT10=
EXTT11=
PLAYORDER=
